# xmcd CD database file
#
# Track frame offsets:
#	150
#	27088
#	42341
#	64824
#	96145
#	115940
#	141715
#	169071
#	184015
#	210926
#
# Disc length: 3314 seconds
#
# Revision: 0
# Processed by: cddbd v1.5.2PL0 Copyright (c) Steve Scherf et al.
# Submitted via: CDex 1.51
#
DISCID=8a0cf00a
DTITLE=Heiri Künzi Quintett - Paris-Buenos Aires
DYEAR=2011
DGENRE=Jazz
TTITLE0=agua tinta
TTITLE1=dusty pampa ride
TTITLE2=between the times
TTITLE3=journey home
TTITLE4=paris-buenos aires
TTITLE5=early snow
TTITLE6=winged creature's delight
TTITLE7=blue fairy
TTITLE8=childrens five
TTITLE9=niskayuna
EXTD=YEAR: 2011
EXTT0=
EXTT1=
EXTT2=
EXTT3=
EXTT4=
EXTT5=
EXTT6=
EXTT7=
EXTT8=
EXTT9=
PLAYORDER=
